<?xml version="1.0" encoding="UTF-8" standalone="no"?>
<!DOCTYPE svg PUBLIC "-//W3C//DTD SVG 1.1//EN"
 "http://www.w3.org/Graphics/SVG/1.1/DTD/svg11.dtd">
<!-- Generated by graphviz version 2.50.0 (20220117.2223)
 -->
<!-- Title: snakemake_dag Pages: 1 -->
<svg width="2262pt" height="404pt"
 viewBox="0.00 0.00 2262.00 404.00" xmlns="http://www.w3.org/2000/svg" xmlns:xlink="http://www.w3.org/1999/xlink">
<g id="graph0" class="graph" transform="scale(1 1) rotate(0) translate(4 400)">
<title>snakemake_dag</title>
<polygon fill="white" stroke="transparent" points="-4,4 -4,-400 2258,-400 2258,4 -4,4"/>
<!-- 0 -->
<g id="node1" class="node">
<title>0</title>
<path fill="none" stroke="#56d89a" stroke-width="2" d="M1142,-36C1142,-36 1112,-36 1112,-36 1106,-36 1100,-30 1100,-24 1100,-24 1100,-12 1100,-12 1100,-6 1106,0 1112,0 1112,0 1142,0 1142,0 1148,0 1154,-6 1154,-12 1154,-12 1154,-24 1154,-24 1154,-30 1148,-36 1142,-36"/>
<text text-anchor="middle" x="1127" y="-15.5" font-family="sans" font-size="10.00">trinity</text>
</g>
<!-- 1 -->
<g id="node2" class="node">
<title>1</title>
<path fill="none" stroke="#56d86b" stroke-width="2" stroke-dasharray="5,2" d="M112,-108C112,-108 12,-108 12,-108 6,-108 0,-102 0,-96 0,-96 0,-84 0,-84 0,-78 6,-72 12,-72 12,-72 112,-72 112,-72 118,-72 124,-78 124,-84 124,-84 124,-96 124,-96 124,-102 118,-108 112,-108"/>
<text text-anchor="middle" x="62" y="-93" font-family="sans" font-size="10.00">pre_trinity_formatting</text>
<text text-anchor="middle" x="62" y="-82" font-family="sans" font-size="10.00">replicate: 1</text>
</g>
<!-- 1&#45;&gt;0 -->
<g id="edge1" class="edge">
<title>1&#45;&gt;0</title>
<path fill="none" stroke="grey" stroke-width="2" d="M124.21,-73.43C127.18,-72.9 130.12,-72.42 133,-72 503.12,-18.28 957.83,-17.51 1089.6,-18.56"/>
<polygon fill="grey" stroke="grey" stroke-width="2" points="1089.91,-22.06 1099.94,-18.65 1089.97,-15.06 1089.91,-22.06"/>
</g>
<!-- 2 -->
<g id="node3" class="node">
<title>2</title>
<path fill="none" stroke="#70d856" stroke-width="2" stroke-dasharray="5,2" d="M136,-180C136,-180 104,-180 104,-180 98,-180 92,-174 92,-168 92,-168 92,-156 92,-156 92,-150 98,-144 104,-144 104,-144 136,-144 136,-144 142,-144 148,-150 148,-156 148,-156 148,-168 148,-168 148,-174 142,-180 136,-180"/>
<text text-anchor="middle" x="120" y="-159.5" font-family="sans" font-size="10.00">kraken2</text>
</g>
<!-- 2&#45;&gt;1 -->
<g id="edge17" class="edge">
<title>2&#45;&gt;1</title>
<path fill="none" stroke="grey" stroke-width="2" d="M105.66,-143.7C98.71,-135.3 90.23,-125.07 82.6,-115.86"/>
<polygon fill="grey" stroke="grey" stroke-width="2" points="85.25,-113.57 76.17,-108.1 79.86,-118.04 85.25,-113.57"/>
</g>
<!-- 49 -->
<g id="node50" class="node">
<title>49</title>
<path fill="none" stroke="#56d86b" stroke-width="2" stroke-dasharray="5,2" d="M254,-108C254,-108 154,-108 154,-108 148,-108 142,-102 142,-96 142,-96 142,-84 142,-84 142,-78 148,-72 154,-72 154,-72 254,-72 254,-72 260,-72 266,-78 266,-84 266,-84 266,-96 266,-96 266,-102 260,-108 254,-108"/>
<text text-anchor="middle" x="204" y="-93" font-family="sans" font-size="10.00">pre_trinity_formatting</text>
<text text-anchor="middle" x="204" y="-82" font-family="sans" font-size="10.00">replicate: 2</text>
</g>
<!-- 2&#45;&gt;49 -->
<g id="edge65" class="edge">
<title>2&#45;&gt;49</title>
<path fill="none" stroke="grey" stroke-width="2" d="M140.76,-143.7C151.24,-134.97 164.11,-124.24 175.5,-114.75"/>
<polygon fill="grey" stroke="grey" stroke-width="2" points="178.03,-117.19 183.47,-108.1 173.55,-111.82 178.03,-117.19"/>
</g>
<!-- 3 -->
<g id="node4" class="node">
<title>3</title>
<path fill="none" stroke="#56b1d8" stroke-width="2" stroke-dasharray="5,2" d="M148,-252C148,-252 92,-252 92,-252 86,-252 80,-246 80,-240 80,-240 80,-228 80,-228 80,-222 86,-216 92,-216 92,-216 148,-216 148,-216 154,-216 160,-222 160,-228 160,-228 160,-240 160,-240 160,-246 154,-252 148,-252"/>
<text text-anchor="middle" x="120" y="-231.5" font-family="sans" font-size="10.00">trimmomatic</text>
</g>
<!-- 3&#45;&gt;2 -->
<g id="edge18" class="edge">
<title>3&#45;&gt;2</title>
<path fill="none" stroke="grey" stroke-width="2" d="M120,-215.7C120,-207.98 120,-198.71 120,-190.11"/>
<polygon fill="grey" stroke="grey" stroke-width="2" points="123.5,-190.1 120,-180.1 116.5,-190.1 123.5,-190.1"/>
</g>
<!-- 4 -->
<g id="node5" class="node">
<title>4</title>
<path fill="none" stroke="#d88556" stroke-width="2" stroke-dasharray="5,2" d="M134.5,-324C134.5,-324 69.5,-324 69.5,-324 63.5,-324 57.5,-318 57.5,-312 57.5,-312 57.5,-300 57.5,-300 57.5,-294 63.5,-288 69.5,-288 69.5,-288 134.5,-288 134.5,-288 140.5,-288 146.5,-294 146.5,-300 146.5,-300 146.5,-312 146.5,-312 146.5,-318 140.5,-324 134.5,-324"/>
<text text-anchor="middle" x="102" y="-309" font-family="sans" font-size="10.00">gzip_compress</text>
<text text-anchor="middle" x="102" y="-298" font-family="sans" font-size="10.00">direction: 1</text>
</g>
<!-- 4&#45;&gt;3 -->
<g id="edge19" class="edge">
<title>4&#45;&gt;3</title>
<path fill="none" stroke="grey" stroke-width="2" d="M106.45,-287.7C108.45,-279.9 110.87,-270.51 113.1,-261.83"/>
<polygon fill="grey" stroke="grey" stroke-width="2" points="116.5,-262.66 115.6,-252.1 109.72,-260.92 116.5,-262.66"/>
</g>
<!-- 5 -->
<g id="node6" class="node">
<title>5</title>
<path fill="none" stroke="#ced856" stroke-width="2" stroke-dasharray="5,2" d="M237,-396C237,-396 147,-396 147,-396 141,-396 135,-390 135,-384 135,-384 135,-372 135,-372 135,-366 141,-360 147,-360 147,-360 237,-360 237,-360 243,-360 249,-366 249,-372 249,-372 249,-384 249,-384 249,-390 243,-396 237,-396"/>
<text text-anchor="middle" x="192" y="-381" font-family="sans" font-size="10.00">fastq_dump</text>
<text text-anchor="middle" x="192" y="-370" font-family="sans" font-size="10.00">sample: SRR799769</text>
</g>
<!-- 5&#45;&gt;4 -->
<g id="edge21" class="edge">
<title>5&#45;&gt;4</title>
<path fill="none" stroke="grey" stroke-width="2" d="M169.75,-359.7C158.42,-350.88 144.47,-340.03 132.18,-330.47"/>
<polygon fill="grey" stroke="grey" stroke-width="2" points="134.03,-327.48 123.99,-324.1 129.74,-333.01 134.03,-327.48"/>
</g>
<!-- 6 -->
<g id="node7" class="node">
<title>6</title>
<path fill="none" stroke="#d88556" stroke-width="2" stroke-dasharray="5,2" d="M241.5,-324C241.5,-324 176.5,-324 176.5,-324 170.5,-324 164.5,-318 164.5,-312 164.5,-312 164.5,-300 164.5,-300 164.5,-294 170.5,-288 176.5,-288 176.5,-288 241.5,-288 241.5,-288 247.5,-288 253.5,-294 253.5,-300 253.5,-300 253.5,-312 253.5,-312 253.5,-318 247.5,-324 241.5,-324"/>
<text text-anchor="middle" x="209" y="-309" font-family="sans" font-size="10.00">gzip_compress</text>
<text text-anchor="middle" x="209" y="-298" font-family="sans" font-size="10.00">direction: 2</text>
</g>
<!-- 5&#45;&gt;6 -->
<g id="edge22" class="edge">
<title>5&#45;&gt;6</title>
<path fill="none" stroke="grey" stroke-width="2" d="M196.2,-359.7C198.1,-351.9 200.38,-342.51 202.48,-333.83"/>
<polygon fill="grey" stroke="grey" stroke-width="2" points="205.89,-334.65 204.85,-324.1 199.08,-333 205.89,-334.65"/>
</g>
<!-- 6&#45;&gt;3 -->
<g id="edge20" class="edge">
<title>6&#45;&gt;3</title>
<path fill="none" stroke="grey" stroke-width="2" d="M187,-287.7C175.79,-278.88 162,-268.03 149.85,-258.47"/>
<polygon fill="grey" stroke="grey" stroke-width="2" points="151.77,-255.54 141.75,-252.1 147.44,-261.04 151.77,-255.54"/>
</g>
<!-- 7 -->
<g id="node8" class="node">
<title>7</title>
<path fill="none" stroke="#56d86b" stroke-width="2" stroke-dasharray="5,2" d="M396,-108C396,-108 296,-108 296,-108 290,-108 284,-102 284,-96 284,-96 284,-84 284,-84 284,-78 290,-72 296,-72 296,-72 396,-72 396,-72 402,-72 408,-78 408,-84 408,-84 408,-96 408,-96 408,-102 402,-108 396,-108"/>
<text text-anchor="middle" x="346" y="-93" font-family="sans" font-size="10.00">pre_trinity_formatting</text>
<text text-anchor="middle" x="346" y="-82" font-family="sans" font-size="10.00">replicate: 1</text>
</g>
<!-- 7&#45;&gt;0 -->
<g id="edge2" class="edge">
<title>7&#45;&gt;0</title>
<path fill="none" stroke="grey" stroke-width="2" d="M408.23,-73.5C411.18,-72.96 414.12,-72.45 417,-72 672.04,-32.21 983.44,-22.07 1089.54,-19.68"/>
<polygon fill="grey" stroke="grey" stroke-width="2" points="1089.81,-23.18 1099.74,-19.46 1089.66,-16.18 1089.81,-23.18"/>
</g>
<!-- 8 -->
<g id="node9" class="node">
<title>8</title>
<path fill="none" stroke="#70d856" stroke-width="2" stroke-dasharray="5,2" d="M446,-180C446,-180 414,-180 414,-180 408,-180 402,-174 402,-168 402,-168 402,-156 402,-156 402,-150 408,-144 414,-144 414,-144 446,-144 446,-144 452,-144 458,-150 458,-156 458,-156 458,-168 458,-168 458,-174 452,-180 446,-180"/>
<text text-anchor="middle" x="430" y="-159.5" font-family="sans" font-size="10.00">kraken2</text>
</g>
<!-- 8&#45;&gt;7 -->
<g id="edge23" class="edge">
<title>8&#45;&gt;7</title>
<path fill="none" stroke="grey" stroke-width="2" d="M409.24,-143.7C398.76,-134.97 385.89,-124.24 374.5,-114.75"/>
<polygon fill="grey" stroke="grey" stroke-width="2" points="376.45,-111.82 366.53,-108.1 371.97,-117.19 376.45,-111.82"/>
</g>
<!-- 50 -->
<g id="node51" class="node">
<title>50</title>
<path fill="none" stroke="#56d86b" stroke-width="2" stroke-dasharray="5,2" d="M538,-108C538,-108 438,-108 438,-108 432,-108 426,-102 426,-96 426,-96 426,-84 426,-84 426,-78 432,-72 438,-72 438,-72 538,-72 538,-72 544,-72 550,-78 550,-84 550,-84 550,-96 550,-96 550,-102 544,-108 538,-108"/>
<text text-anchor="middle" x="488" y="-93" font-family="sans" font-size="10.00">pre_trinity_formatting</text>
<text text-anchor="middle" x="488" y="-82" font-family="sans" font-size="10.00">replicate: 2</text>
</g>
<!-- 8&#45;&gt;50 -->
<g id="edge66" class="edge">
<title>8&#45;&gt;50</title>
<path fill="none" stroke="grey" stroke-width="2" d="M444.34,-143.7C451.29,-135.3 459.77,-125.07 467.4,-115.86"/>
<polygon fill="grey" stroke="grey" stroke-width="2" points="470.14,-118.04 473.83,-108.1 464.75,-113.57 470.14,-118.04"/>
</g>
<!-- 9 -->
<g id="node10" class="node">
<title>9</title>
<path fill="none" stroke="#56b1d8" stroke-width="2" stroke-dasharray="5,2" d="M458,-252C458,-252 402,-252 402,-252 396,-252 390,-246 390,-240 390,-240 390,-228 390,-228 390,-222 396,-216 402,-216 402,-216 458,-216 458,-216 464,-216 470,-222 470,-228 470,-228 470,-240 470,-240 470,-246 464,-252 458,-252"/>
<text text-anchor="middle" x="430" y="-231.5" font-family="sans" font-size="10.00">trimmomatic</text>
</g>
<!-- 9&#45;&gt;8 -->
<g id="edge24" class="edge">
<title>9&#45;&gt;8</title>
<path fill="none" stroke="grey" stroke-width="2" d="M430,-215.7C430,-207.98 430,-198.71 430,-190.11"/>
<polygon fill="grey" stroke="grey" stroke-width="2" points="433.5,-190.1 430,-180.1 426.5,-190.1 433.5,-190.1"/>
</g>
<!-- 10 -->
<g id="node11" class="node">
<title>10</title>
<path fill="none" stroke="#d88556" stroke-width="2" stroke-dasharray="5,2" d="M381.5,-324C381.5,-324 316.5,-324 316.5,-324 310.5,-324 304.5,-318 304.5,-312 304.5,-312 304.5,-300 304.5,-300 304.5,-294 310.5,-288 316.5,-288 316.5,-288 381.5,-288 381.5,-288 387.5,-288 393.5,-294 393.5,-300 393.5,-300 393.5,-312 393.5,-312 393.5,-318 387.5,-324 381.5,-324"/>
<text text-anchor="middle" x="349" y="-309" font-family="sans" font-size="10.00">gzip_compress</text>
<text text-anchor="middle" x="349" y="-298" font-family="sans" font-size="10.00">direction: 1</text>
</g>
<!-- 10&#45;&gt;9 -->
<g id="edge25" class="edge">
<title>10&#45;&gt;9</title>
<path fill="none" stroke="grey" stroke-width="2" d="M369.02,-287.7C379.13,-278.97 391.54,-268.24 402.52,-258.75"/>
<polygon fill="grey" stroke="grey" stroke-width="2" points="404.93,-261.29 410.21,-252.1 400.35,-255.99 404.93,-261.29"/>
</g>
<!-- 11 -->
<g id="node12" class="node">
<title>11</title>
<path fill="none" stroke="#ced856" stroke-width="2" stroke-dasharray="5,2" d="M410,-396C410,-396 320,-396 320,-396 314,-396 308,-390 308,-384 308,-384 308,-372 308,-372 308,-366 314,-360 320,-360 320,-360 410,-360 410,-360 416,-360 422,-366 422,-372 422,-372 422,-384 422,-384 422,-390 416,-396 410,-396"/>
<text text-anchor="middle" x="365" y="-381" font-family="sans" font-size="10.00">fastq_dump</text>
<text text-anchor="middle" x="365" y="-370" font-family="sans" font-size="10.00">sample: SRR799770</text>
</g>
<!-- 11&#45;&gt;10 -->
<g id="edge27" class="edge">
<title>11&#45;&gt;10</title>
<path fill="none" stroke="grey" stroke-width="2" d="M361.04,-359.7C359.28,-351.98 357.16,-342.71 355.2,-334.11"/>
<polygon fill="grey" stroke="grey" stroke-width="2" points="358.55,-333.07 352.91,-324.1 351.73,-334.63 358.55,-333.07"/>
</g>
<!-- 12 -->
<g id="node13" class="node">
<title>12</title>
<path fill="none" stroke="#d88556" stroke-width="2" stroke-dasharray="5,2" d="M488.5,-324C488.5,-324 423.5,-324 423.5,-324 417.5,-324 411.5,-318 411.5,-312 411.5,-312 411.5,-300 411.5,-300 411.5,-294 417.5,-288 423.5,-288 423.5,-288 488.5,-288 488.5,-288 494.5,-288 500.5,-294 500.5,-300 500.5,-300 500.5,-312 500.5,-312 500.5,-318 494.5,-324 488.5,-324"/>
<text text-anchor="middle" x="456" y="-309" font-family="sans" font-size="10.00">gzip_compress</text>
<text text-anchor="middle" x="456" y="-298" font-family="sans" font-size="10.00">direction: 2</text>
</g>
<!-- 11&#45;&gt;12 -->
<g id="edge28" class="edge">
<title>11&#45;&gt;12</title>
<path fill="none" stroke="grey" stroke-width="2" d="M387.49,-359.7C398.96,-350.88 413.06,-340.03 425.48,-330.47"/>
<polygon fill="grey" stroke="grey" stroke-width="2" points="427.97,-332.98 433.76,-324.1 423.7,-327.43 427.97,-332.98"/>
</g>
<!-- 12&#45;&gt;9 -->
<g id="edge26" class="edge">
<title>12&#45;&gt;9</title>
<path fill="none" stroke="grey" stroke-width="2" d="M449.57,-287.7C446.64,-279.81 443.11,-270.3 439.86,-261.55"/>
<polygon fill="grey" stroke="grey" stroke-width="2" points="443.12,-260.26 436.35,-252.1 436.55,-262.7 443.12,-260.26"/>
</g>
<!-- 13 -->
<g id="node14" class="node">
<title>13</title>
<path fill="none" stroke="#56d86b" stroke-width="2" stroke-dasharray="5,2" d="M680,-108C680,-108 580,-108 580,-108 574,-108 568,-102 568,-96 568,-96 568,-84 568,-84 568,-78 574,-72 580,-72 580,-72 680,-72 680,-72 686,-72 692,-78 692,-84 692,-84 692,-96 692,-96 692,-102 686,-108 680,-108"/>
<text text-anchor="middle" x="630" y="-93" font-family="sans" font-size="10.00">pre_trinity_formatting</text>
<text text-anchor="middle" x="630" y="-82" font-family="sans" font-size="10.00">replicate: 1</text>
</g>
<!-- 13&#45;&gt;0 -->
<g id="edge3" class="edge">
<title>13&#45;&gt;0</title>
<path fill="none" stroke="grey" stroke-width="2" d="M692.26,-73.68C695.21,-73.08 698.13,-72.52 701,-72 843.59,-46.14 1015.33,-28.99 1089.68,-22.23"/>
<polygon fill="grey" stroke="grey" stroke-width="2" points="1090.28,-25.69 1099.93,-21.31 1089.65,-18.72 1090.28,-25.69"/>
</g>
<!-- 14 -->
<g id="node15" class="node">
<title>14</title>
<path fill="none" stroke="#70d856" stroke-width="2" stroke-dasharray="5,2" d="M753,-180C753,-180 721,-180 721,-180 715,-180 709,-174 709,-168 709,-168 709,-156 709,-156 709,-150 715,-144 721,-144 721,-144 753,-144 753,-144 759,-144 765,-150 765,-156 765,-156 765,-168 765,-168 765,-174 759,-180 753,-180"/>
<text text-anchor="middle" x="737" y="-159.5" font-family="sans" font-size="10.00">kraken2</text>
</g>
<!-- 14&#45;&gt;13 -->
<g id="edge29" class="edge">
<title>14&#45;&gt;13</title>
<path fill="none" stroke="grey" stroke-width="2" d="M710.82,-143.88C696.96,-134.81 679.76,-123.55 664.79,-113.76"/>
<polygon fill="grey" stroke="grey" stroke-width="2" points="666.56,-110.74 656.28,-108.19 662.73,-116.59 666.56,-110.74"/>
</g>
<!-- 51 -->
<g id="node52" class="node">
<title>51</title>
<path fill="none" stroke="#56d86b" stroke-width="2" stroke-dasharray="5,2" d="M822,-108C822,-108 722,-108 722,-108 716,-108 710,-102 710,-96 710,-96 710,-84 710,-84 710,-78 716,-72 722,-72 722,-72 822,-72 822,-72 828,-72 834,-78 834,-84 834,-84 834,-96 834,-96 834,-102 828,-108 822,-108"/>
<text text-anchor="middle" x="772" y="-93" font-family="sans" font-size="10.00">pre_trinity_formatting</text>
<text text-anchor="middle" x="772" y="-82" font-family="sans" font-size="10.00">replicate: 2</text>
</g>
<!-- 14&#45;&gt;51 -->
<g id="edge67" class="edge">
<title>14&#45;&gt;51</title>
<path fill="none" stroke="grey" stroke-width="2" d="M745.65,-143.7C749.64,-135.73 754.45,-126.1 758.87,-117.26"/>
<polygon fill="grey" stroke="grey" stroke-width="2" points="762.11,-118.61 763.45,-108.1 755.85,-115.48 762.11,-118.61"/>
</g>
<!-- 15 -->
<g id="node16" class="node">
<title>15</title>
<path fill="none" stroke="#56b1d8" stroke-width="2" stroke-dasharray="5,2" d="M765,-252C765,-252 709,-252 709,-252 703,-252 697,-246 697,-240 697,-240 697,-228 697,-228 697,-222 703,-216 709,-216 709,-216 765,-216 765,-216 771,-216 777,-222 777,-228 777,-228 777,-240 777,-240 777,-246 771,-252 765,-252"/>
<text text-anchor="middle" x="737" y="-231.5" font-family="sans" font-size="10.00">trimmomatic</text>
</g>
<!-- 15&#45;&gt;14 -->
<g id="edge30" class="edge">
<title>15&#45;&gt;14</title>
<path fill="none" stroke="grey" stroke-width="2" d="M737,-215.7C737,-207.98 737,-198.71 737,-190.11"/>
<polygon fill="grey" stroke="grey" stroke-width="2" points="740.5,-190.1 737,-180.1 733.5,-190.1 740.5,-190.1"/>
</g>
<!-- 16 -->
<g id="node17" class="node">
<title>16</title>
<path fill="none" stroke="#d88556" stroke-width="2" stroke-dasharray="5,2" d="M679.5,-324C679.5,-324 614.5,-324 614.5,-324 608.5,-324 602.5,-318 602.5,-312 602.5,-312 602.5,-300 602.5,-300 602.5,-294 608.5,-288 614.5,-288 614.5,-288 679.5,-288 679.5,-288 685.5,-288 691.5,-294 691.5,-300 691.5,-300 691.5,-312 691.5,-312 691.5,-318 685.5,-324 679.5,-324"/>
<text text-anchor="middle" x="647" y="-309" font-family="sans" font-size="10.00">gzip_compress</text>
<text text-anchor="middle" x="647" y="-298" font-family="sans" font-size="10.00">direction: 1</text>
</g>
<!-- 16&#45;&gt;15 -->
<g id="edge31" class="edge">
<title>16&#45;&gt;15</title>
<path fill="none" stroke="grey" stroke-width="2" d="M669.25,-287.7C680.58,-278.88 694.53,-268.03 706.82,-258.47"/>
<polygon fill="grey" stroke="grey" stroke-width="2" points="709.26,-261.01 715.01,-252.1 704.97,-255.48 709.26,-261.01"/>
</g>
<!-- 17 -->
<g id="node18" class="node">
<title>17</title>
<path fill="none" stroke="#ced856" stroke-width="2" stroke-dasharray="5,2" d="M742,-396C742,-396 652,-396 652,-396 646,-396 640,-390 640,-384 640,-384 640,-372 640,-372 640,-366 646,-360 652,-360 652,-360 742,-360 742,-360 748,-360 754,-366 754,-372 754,-372 754,-384 754,-384 754,-390 748,-396 742,-396"/>
<text text-anchor="middle" x="697" y="-381" font-family="sans" font-size="10.00">fastq_dump</text>
<text text-anchor="middle" x="697" y="-370" font-family="sans" font-size="10.00">sample: SRR799771</text>
</g>
<!-- 17&#45;&gt;16 -->
<g id="edge33" class="edge">
<title>17&#45;&gt;16</title>
<path fill="none" stroke="grey" stroke-width="2" d="M684.64,-359.7C678.77,-351.47 671.63,-341.48 665.16,-332.42"/>
<polygon fill="grey" stroke="grey" stroke-width="2" points="667.88,-330.21 659.22,-324.1 662.18,-334.28 667.88,-330.21"/>
</g>
<!-- 18 -->
<g id="node19" class="node">
<title>18</title>
<path fill="none" stroke="#d88556" stroke-width="2" stroke-dasharray="5,2" d="M786.5,-324C786.5,-324 721.5,-324 721.5,-324 715.5,-324 709.5,-318 709.5,-312 709.5,-312 709.5,-300 709.5,-300 709.5,-294 715.5,-288 721.5,-288 721.5,-288 786.5,-288 786.5,-288 792.5,-288 798.5,-294 798.5,-300 798.5,-300 798.5,-312 798.5,-312 798.5,-318 792.5,-324 786.5,-324"/>
<text text-anchor="middle" x="754" y="-309" font-family="sans" font-size="10.00">gzip_compress</text>
<text text-anchor="middle" x="754" y="-298" font-family="sans" font-size="10.00">direction: 2</text>
</g>
<!-- 17&#45;&gt;18 -->
<g id="edge34" class="edge">
<title>17&#45;&gt;18</title>
<path fill="none" stroke="grey" stroke-width="2" d="M711.09,-359.7C717.92,-351.3 726.26,-341.07 733.76,-331.86"/>
<polygon fill="grey" stroke="grey" stroke-width="2" points="736.47,-334.07 740.07,-324.1 731.04,-329.65 736.47,-334.07"/>
</g>
<!-- 18&#45;&gt;15 -->
<g id="edge32" class="edge">
<title>18&#45;&gt;15</title>
<path fill="none" stroke="grey" stroke-width="2" d="M749.8,-287.7C747.9,-279.9 745.62,-270.51 743.52,-261.83"/>
<polygon fill="grey" stroke="grey" stroke-width="2" points="746.92,-261 741.15,-252.1 740.11,-262.65 746.92,-261"/>
</g>
<!-- 19 -->
<g id="node20" class="node">
<title>19</title>
<path fill="none" stroke="#56d86b" stroke-width="2" stroke-dasharray="5,2" d="M964,-108C964,-108 864,-108 864,-108 858,-108 852,-102 852,-96 852,-96 852,-84 852,-84 852,-78 858,-72 864,-72 864,-72 964,-72 964,-72 970,-72 976,-78 976,-84 976,-84 976,-96 976,-96 976,-102 970,-108 964,-108"/>
<text text-anchor="middle" x="914" y="-93" font-family="sans" font-size="10.00">pre_trinity_formatting</text>
<text text-anchor="middle" x="914" y="-82" font-family="sans" font-size="10.00">replicate: 1</text>
</g>
<!-- 19&#45;&gt;0 -->
<g id="edge4" class="edge">
<title>19&#45;&gt;0</title>
<path fill="none" stroke="grey" stroke-width="2" d="M965.83,-71.97C1004.28,-59.33 1055.76,-42.41 1090.08,-31.13"/>
<polygon fill="grey" stroke="grey" stroke-width="2" points="1091.31,-34.41 1099.72,-27.97 1089.13,-27.76 1091.31,-34.41"/>
</g>
<!-- 20 -->
<g id="node21" class="node">
<title>20</title>
<path fill="none" stroke="#70d856" stroke-width="2" stroke-dasharray="5,2" d="M947,-180C947,-180 915,-180 915,-180 909,-180 903,-174 903,-168 903,-168 903,-156 903,-156 903,-150 909,-144 915,-144 915,-144 947,-144 947,-144 953,-144 959,-150 959,-156 959,-156 959,-168 959,-168 959,-174 953,-180 947,-180"/>
<text text-anchor="middle" x="931" y="-159.5" font-family="sans" font-size="10.00">kraken2</text>
</g>
<!-- 20&#45;&gt;19 -->
<g id="edge35" class="edge">
<title>20&#45;&gt;19</title>
<path fill="none" stroke="grey" stroke-width="2" d="M926.8,-143.7C924.9,-135.9 922.62,-126.51 920.52,-117.83"/>
<polygon fill="grey" stroke="grey" stroke-width="2" points="923.92,-117 918.15,-108.1 917.11,-118.65 923.92,-117"/>
</g>
<!-- 52 -->
<g id="node53" class="node">
<title>52</title>
<path fill="none" stroke="#56d86b" stroke-width="2" stroke-dasharray="5,2" d="M1106,-108C1106,-108 1006,-108 1006,-108 1000,-108 994,-102 994,-96 994,-96 994,-84 994,-84 994,-78 1000,-72 1006,-72 1006,-72 1106,-72 1106,-72 1112,-72 1118,-78 1118,-84 1118,-84 1118,-96 1118,-96 1118,-102 1112,-108 1106,-108"/>
<text text-anchor="middle" x="1056" y="-93" font-family="sans" font-size="10.00">pre_trinity_formatting</text>
<text text-anchor="middle" x="1056" y="-82" font-family="sans" font-size="10.00">replicate: 2</text>
</g>
<!-- 20&#45;&gt;52 -->
<g id="edge68" class="edge">
<title>20&#45;&gt;52</title>
<path fill="none" stroke="grey" stroke-width="2" d="M959.05,-145.29C976,-135.8 997.87,-123.55 1016.54,-113.1"/>
<polygon fill="grey" stroke="grey" stroke-width="2" points="1018.4,-116.07 1025.42,-108.13 1014.98,-109.96 1018.4,-116.07"/>
</g>
<!-- 21 -->
<g id="node22" class="node">
<title>21</title>
<path fill="none" stroke="#56b1d8" stroke-width="2" stroke-dasharray="5,2" d="M959,-252C959,-252 903,-252 903,-252 897,-252 891,-246 891,-240 891,-240 891,-228 891,-228 891,-222 897,-216 903,-216 903,-216 959,-216 959,-216 965,-216 971,-222 971,-228 971,-228 971,-240 971,-240 971,-246 965,-252 959,-252"/>
<text text-anchor="middle" x="931" y="-231.5" font-family="sans" font-size="10.00">trimmomatic</text>
</g>
<!-- 21&#45;&gt;20 -->
<g id="edge36" class="edge">
<title>21&#45;&gt;20</title>
<path fill="none" stroke="grey" stroke-width="2" d="M931,-215.7C931,-207.98 931,-198.71 931,-190.11"/>
<polygon fill="grey" stroke="grey" stroke-width="2" points="934.5,-190.1 931,-180.1 927.5,-190.1 934.5,-190.1"/>
</g>
<!-- 22 -->
<g id="node23" class="node">
<title>22</title>
<path fill="none" stroke="#d88556" stroke-width="2" stroke-dasharray="5,2" d="M928.5,-324C928.5,-324 863.5,-324 863.5,-324 857.5,-324 851.5,-318 851.5,-312 851.5,-312 851.5,-300 851.5,-300 851.5,-294 857.5,-288 863.5,-288 863.5,-288 928.5,-288 928.5,-288 934.5,-288 940.5,-294 940.5,-300 940.5,-300 940.5,-312 940.5,-312 940.5,-318 934.5,-324 928.5,-324"/>
<text text-anchor="middle" x="896" y="-309" font-family="sans" font-size="10.00">gzip_compress</text>
<text text-anchor="middle" x="896" y="-298" font-family="sans" font-size="10.00">direction: 1</text>
</g>
<!-- 22&#45;&gt;21 -->
<g id="edge37" class="edge">
<title>22&#45;&gt;21</title>
<path fill="none" stroke="grey" stroke-width="2" d="M904.65,-287.7C908.64,-279.73 913.45,-270.1 917.87,-261.26"/>
<polygon fill="grey" stroke="grey" stroke-width="2" points="921.11,-262.61 922.45,-252.1 914.85,-259.48 921.11,-262.61"/>
</g>
<!-- 23 -->
<g id="node24" class="node">
<title>23</title>
<path fill="none" stroke="#ced856" stroke-width="2" stroke-dasharray="5,2" d="M990,-396C990,-396 900,-396 900,-396 894,-396 888,-390 888,-384 888,-384 888,-372 888,-372 888,-366 894,-360 900,-360 900,-360 990,-360 990,-360 996,-360 1002,-366 1002,-372 1002,-372 1002,-384 1002,-384 1002,-390 996,-396 990,-396"/>
<text text-anchor="middle" x="945" y="-381" font-family="sans" font-size="10.00">fastq_dump</text>
<text text-anchor="middle" x="945" y="-370" font-family="sans" font-size="10.00">sample: SRR799772</text>
</g>
<!-- 23&#45;&gt;22 -->
<g id="edge39" class="edge">
<title>23&#45;&gt;22</title>
<path fill="none" stroke="grey" stroke-width="2" d="M932.89,-359.7C927.13,-351.47 920.14,-341.48 913.79,-332.42"/>
<polygon fill="grey" stroke="grey" stroke-width="2" points="916.58,-330.29 907.97,-324.1 910.84,-334.3 916.58,-330.29"/>
</g>
<!-- 24 -->
<g id="node25" class="node">
<title>24</title>
<path fill="none" stroke="#d88556" stroke-width="2" stroke-dasharray="5,2" d="M1035.5,-324C1035.5,-324 970.5,-324 970.5,-324 964.5,-324 958.5,-318 958.5,-312 958.5,-312 958.5,-300 958.5,-300 958.5,-294 964.5,-288 970.5,-288 970.5,-288 1035.5,-288 1035.5,-288 1041.5,-288 1047.5,-294 1047.5,-300 1047.5,-300 1047.5,-312 1047.5,-312 1047.5,-318 1041.5,-324 1035.5,-324"/>
<text text-anchor="middle" x="1003" y="-309" font-family="sans" font-size="10.00">gzip_compress</text>
<text text-anchor="middle" x="1003" y="-298" font-family="sans" font-size="10.00">direction: 2</text>
</g>
<!-- 23&#45;&gt;24 -->
<g id="edge40" class="edge">
<title>23&#45;&gt;24</title>
<path fill="none" stroke="grey" stroke-width="2" d="M959.34,-359.7C966.29,-351.3 974.77,-341.07 982.4,-331.86"/>
<polygon fill="grey" stroke="grey" stroke-width="2" points="985.14,-334.04 988.83,-324.1 979.75,-329.57 985.14,-334.04"/>
</g>
<!-- 24&#45;&gt;21 -->
<g id="edge38" class="edge">
<title>24&#45;&gt;21</title>
<path fill="none" stroke="grey" stroke-width="2" d="M985.2,-287.7C976.4,-279.14 965.62,-268.66 956,-259.3"/>
<polygon fill="grey" stroke="grey" stroke-width="2" points="958.2,-256.57 948.59,-252.1 953.32,-261.58 958.2,-256.57"/>
</g>
<!-- 25 -->
<g id="node26" class="node">
<title>25</title>
<path fill="none" stroke="#56d86b" stroke-width="2" stroke-dasharray="5,2" d="M1248,-108C1248,-108 1148,-108 1148,-108 1142,-108 1136,-102 1136,-96 1136,-96 1136,-84 1136,-84 1136,-78 1142,-72 1148,-72 1148,-72 1248,-72 1248,-72 1254,-72 1260,-78 1260,-84 1260,-84 1260,-96 1260,-96 1260,-102 1254,-108 1248,-108"/>
<text text-anchor="middle" x="1198" y="-93" font-family="sans" font-size="10.00">pre_trinity_formatting</text>
<text text-anchor="middle" x="1198" y="-82" font-family="sans" font-size="10.00">replicate: 1</text>
</g>
<!-- 25&#45;&gt;0 -->
<g id="edge5" class="edge">
<title>25&#45;&gt;0</title>
<path fill="none" stroke="grey" stroke-width="2" d="M1180.45,-71.7C1171.77,-63.14 1161.14,-52.66 1151.65,-43.3"/>
<polygon fill="grey" stroke="grey" stroke-width="2" points="1153.93,-40.63 1144.35,-36.1 1149.01,-45.62 1153.93,-40.63"/>
</g>
<!-- 26 -->
<g id="node27" class="node">
<title>26</title>
<path fill="none" stroke="#70d856" stroke-width="2" stroke-dasharray="5,2" d="M1232,-180C1232,-180 1200,-180 1200,-180 1194,-180 1188,-174 1188,-168 1188,-168 1188,-156 1188,-156 1188,-150 1194,-144 1200,-144 1200,-144 1232,-144 1232,-144 1238,-144 1244,-150 1244,-156 1244,-156 1244,-168 1244,-168 1244,-174 1238,-180 1232,-180"/>
<text text-anchor="middle" x="1216" y="-159.5" font-family="sans" font-size="10.00">kraken2</text>
</g>
<!-- 26&#45;&gt;25 -->
<g id="edge41" class="edge">
<title>26&#45;&gt;25</title>
<path fill="none" stroke="grey" stroke-width="2" d="M1211.55,-143.7C1209.55,-135.9 1207.13,-126.51 1204.9,-117.83"/>
<polygon fill="grey" stroke="grey" stroke-width="2" points="1208.28,-116.92 1202.4,-108.1 1201.5,-118.66 1208.28,-116.92"/>
</g>
<!-- 53 -->
<g id="node54" class="node">
<title>53</title>
<path fill="none" stroke="#56d86b" stroke-width="2" stroke-dasharray="5,2" d="M1390,-108C1390,-108 1290,-108 1290,-108 1284,-108 1278,-102 1278,-96 1278,-96 1278,-84 1278,-84 1278,-78 1284,-72 1290,-72 1290,-72 1390,-72 1390,-72 1396,-72 1402,-78 1402,-84 1402,-84 1402,-96 1402,-96 1402,-102 1396,-108 1390,-108"/>
<text text-anchor="middle" x="1340" y="-93" font-family="sans" font-size="10.00">pre_trinity_formatting</text>
<text text-anchor="middle" x="1340" y="-82" font-family="sans" font-size="10.00">replicate: 2</text>
</g>
<!-- 26&#45;&gt;53 -->
<g id="edge69" class="edge">
<title>26&#45;&gt;53</title>
<path fill="none" stroke="grey" stroke-width="2" d="M1244.14,-145.12C1260.96,-135.62 1282.59,-123.41 1301.04,-112.99"/>
<polygon fill="grey" stroke="grey" stroke-width="2" points="1302.82,-116.01 1309.81,-108.04 1299.38,-109.91 1302.82,-116.01"/>
</g>
<!-- 27 -->
<g id="node28" class="node">
<title>27</title>
<path fill="none" stroke="#56b1d8" stroke-width="2" stroke-dasharray="5,2" d="M1244,-252C1244,-252 1188,-252 1188,-252 1182,-252 1176,-246 1176,-240 1176,-240 1176,-228 1176,-228 1176,-222 1182,-216 1188,-216 1188,-216 1244,-216 1244,-216 1250,-216 1256,-222 1256,-228 1256,-228 1256,-240 1256,-240 1256,-246 1250,-252 1244,-252"/>
<text text-anchor="middle" x="1216" y="-231.5" font-family="sans" font-size="10.00">trimmomatic</text>
</g>
<!-- 27&#45;&gt;26 -->
<g id="edge42" class="edge">
<title>27&#45;&gt;26</title>
<path fill="none" stroke="grey" stroke-width="2" d="M1216,-215.7C1216,-207.98 1216,-198.71 1216,-190.11"/>
<polygon fill="grey" stroke="grey" stroke-width="2" points="1219.5,-190.1 1216,-180.1 1212.5,-190.1 1219.5,-190.1"/>
</g>
<!-- 28 -->
<g id="node29" class="node">
<title>28</title>
<path fill="none" stroke="#d88556" stroke-width="2" stroke-dasharray="5,2" d="M1211.5,-324C1211.5,-324 1146.5,-324 1146.5,-324 1140.5,-324 1134.5,-318 1134.5,-312 1134.5,-312 1134.5,-300 1134.5,-300 1134.5,-294 1140.5,-288 1146.5,-288 1146.5,-288 1211.5,-288 1211.5,-288 1217.5,-288 1223.5,-294 1223.5,-300 1223.5,-300 1223.5,-312 1223.5,-312 1223.5,-318 1217.5,-324 1211.5,-324"/>
<text text-anchor="middle" x="1179" y="-309" font-family="sans" font-size="10.00">gzip_compress</text>
<text text-anchor="middle" x="1179" y="-298" font-family="sans" font-size="10.00">direction: 1</text>
</g>
<!-- 28&#45;&gt;27 -->
<g id="edge43" class="edge">
<title>28&#45;&gt;27</title>
<path fill="none" stroke="grey" stroke-width="2" d="M1188.15,-287.7C1192.4,-279.64 1197.56,-269.89 1202.27,-260.98"/>
<polygon fill="grey" stroke="grey" stroke-width="2" points="1205.38,-262.58 1206.96,-252.1 1199.19,-259.31 1205.38,-262.58"/>
</g>
<!-- 29 -->
<g id="node30" class="node">
<title>29</title>
<path fill="none" stroke="#ced856" stroke-width="2" stroke-dasharray="5,2" d="M1277,-396C1277,-396 1187,-396 1187,-396 1181,-396 1175,-390 1175,-384 1175,-384 1175,-372 1175,-372 1175,-366 1181,-360 1187,-360 1187,-360 1277,-360 1277,-360 1283,-360 1289,-366 1289,-372 1289,-372 1289,-384 1289,-384 1289,-390 1283,-396 1277,-396"/>
<text text-anchor="middle" x="1232" y="-381" font-family="sans" font-size="10.00">fastq_dump</text>
<text text-anchor="middle" x="1232" y="-370" font-family="sans" font-size="10.00">sample: SRR799773</text>
</g>
<!-- 29&#45;&gt;28 -->
<g id="edge45" class="edge">
<title>29&#45;&gt;28</title>
<path fill="none" stroke="grey" stroke-width="2" d="M1218.9,-359.7C1212.61,-351.39 1204.95,-341.28 1198.04,-332.14"/>
<polygon fill="grey" stroke="grey" stroke-width="2" points="1200.78,-329.96 1191.95,-324.1 1195.2,-334.19 1200.78,-329.96"/>
</g>
<!-- 30 -->
<g id="node31" class="node">
<title>30</title>
<path fill="none" stroke="#d88556" stroke-width="2" stroke-dasharray="5,2" d="M1318.5,-324C1318.5,-324 1253.5,-324 1253.5,-324 1247.5,-324 1241.5,-318 1241.5,-312 1241.5,-312 1241.5,-300 1241.5,-300 1241.5,-294 1247.5,-288 1253.5,-288 1253.5,-288 1318.5,-288 1318.5,-288 1324.5,-288 1330.5,-294 1330.5,-300 1330.5,-300 1330.5,-312 1330.5,-312 1330.5,-318 1324.5,-324 1318.5,-324"/>
<text text-anchor="middle" x="1286" y="-309" font-family="sans" font-size="10.00">gzip_compress</text>
<text text-anchor="middle" x="1286" y="-298" font-family="sans" font-size="10.00">direction: 2</text>
</g>
<!-- 29&#45;&gt;30 -->
<g id="edge46" class="edge">
<title>29&#45;&gt;30</title>
<path fill="none" stroke="grey" stroke-width="2" d="M1245.35,-359.7C1251.76,-351.39 1259.56,-341.28 1266.61,-332.14"/>
<polygon fill="grey" stroke="grey" stroke-width="2" points="1269.47,-334.16 1272.81,-324.1 1263.93,-329.88 1269.47,-334.16"/>
</g>
<!-- 30&#45;&gt;27 -->
<g id="edge44" class="edge">
<title>30&#45;&gt;27</title>
<path fill="none" stroke="grey" stroke-width="2" d="M1268.7,-287.7C1260.14,-279.14 1249.66,-268.66 1240.3,-259.3"/>
<polygon fill="grey" stroke="grey" stroke-width="2" points="1242.65,-256.7 1233.1,-252.1 1237.7,-261.65 1242.65,-256.7"/>
</g>
<!-- 31 -->
<g id="node32" class="node">
<title>31</title>
<path fill="none" stroke="#56d86b" stroke-width="2" stroke-dasharray="5,2" d="M1532,-108C1532,-108 1432,-108 1432,-108 1426,-108 1420,-102 1420,-96 1420,-96 1420,-84 1420,-84 1420,-78 1426,-72 1432,-72 1432,-72 1532,-72 1532,-72 1538,-72 1544,-78 1544,-84 1544,-84 1544,-96 1544,-96 1544,-102 1538,-108 1532,-108"/>
<text text-anchor="middle" x="1482" y="-93" font-family="sans" font-size="10.00">pre_trinity_formatting</text>
<text text-anchor="middle" x="1482" y="-82" font-family="sans" font-size="10.00">replicate: 1</text>
</g>
<!-- 31&#45;&gt;0 -->
<g id="edge6" class="edge">
<title>31&#45;&gt;0</title>
<path fill="none" stroke="grey" stroke-width="2" d="M1419.7,-73.9C1416.76,-73.24 1413.85,-72.61 1411,-72 1322.74,-53.21 1218.27,-34.66 1163.97,-25.28"/>
<polygon fill="grey" stroke="grey" stroke-width="2" points="1164.56,-21.83 1154.11,-23.59 1163.37,-28.73 1164.56,-21.83"/>
</g>
<!-- 32 -->
<g id="node33" class="node">
<title>32</title>
<path fill="none" stroke="#70d856" stroke-width="2" stroke-dasharray="5,2" d="M1533,-180C1533,-180 1501,-180 1501,-180 1495,-180 1489,-174 1489,-168 1489,-168 1489,-156 1489,-156 1489,-150 1495,-144 1501,-144 1501,-144 1533,-144 1533,-144 1539,-144 1545,-150 1545,-156 1545,-156 1545,-168 1545,-168 1545,-174 1539,-180 1533,-180"/>
<text text-anchor="middle" x="1517" y="-159.5" font-family="sans" font-size="10.00">kraken2</text>
</g>
<!-- 32&#45;&gt;31 -->
<g id="edge47" class="edge">
<title>32&#45;&gt;31</title>
<path fill="none" stroke="grey" stroke-width="2" d="M1508.35,-143.7C1504.36,-135.73 1499.55,-126.1 1495.13,-117.26"/>
<polygon fill="grey" stroke="grey" stroke-width="2" points="1498.15,-115.48 1490.55,-108.1 1491.89,-118.61 1498.15,-115.48"/>
</g>
<!-- 54 -->
<g id="node55" class="node">
<title>54</title>
<path fill="none" stroke="#56d86b" stroke-width="2" stroke-dasharray="5,2" d="M1674,-108C1674,-108 1574,-108 1574,-108 1568,-108 1562,-102 1562,-96 1562,-96 1562,-84 1562,-84 1562,-78 1568,-72 1574,-72 1574,-72 1674,-72 1674,-72 1680,-72 1686,-78 1686,-84 1686,-84 1686,-96 1686,-96 1686,-102 1680,-108 1674,-108"/>
<text text-anchor="middle" x="1624" y="-93" font-family="sans" font-size="10.00">pre_trinity_formatting</text>
<text text-anchor="middle" x="1624" y="-82" font-family="sans" font-size="10.00">replicate: 2</text>
</g>
<!-- 32&#45;&gt;54 -->
<g id="edge70" class="edge">
<title>32&#45;&gt;54</title>
<path fill="none" stroke="grey" stroke-width="2" d="M1543.18,-143.88C1557.04,-134.81 1574.24,-123.55 1589.21,-113.76"/>
<polygon fill="grey" stroke="grey" stroke-width="2" points="1591.27,-116.59 1597.72,-108.19 1587.44,-110.74 1591.27,-116.59"/>
</g>
<!-- 33 -->
<g id="node34" class="node">
<title>33</title>
<path fill="none" stroke="#56b1d8" stroke-width="2" stroke-dasharray="5,2" d="M1545,-252C1545,-252 1489,-252 1489,-252 1483,-252 1477,-246 1477,-240 1477,-240 1477,-228 1477,-228 1477,-222 1483,-216 1489,-216 1489,-216 1545,-216 1545,-216 1551,-216 1557,-222 1557,-228 1557,-228 1557,-240 1557,-240 1557,-246 1551,-252 1545,-252"/>
<text text-anchor="middle" x="1517" y="-231.5" font-family="sans" font-size="10.00">trimmomatic</text>
</g>
<!-- 33&#45;&gt;32 -->
<g id="edge48" class="edge">
<title>33&#45;&gt;32</title>
<path fill="none" stroke="grey" stroke-width="2" d="M1517,-215.7C1517,-207.98 1517,-198.71 1517,-190.11"/>
<polygon fill="grey" stroke="grey" stroke-width="2" points="1520.5,-190.1 1517,-180.1 1513.5,-190.1 1520.5,-190.1"/>
</g>
<!-- 34 -->
<g id="node35" class="node">
<title>34</title>
<path fill="none" stroke="#d88556" stroke-width="2" stroke-dasharray="5,2" d="M1459.5,-324C1459.5,-324 1394.5,-324 1394.5,-324 1388.5,-324 1382.5,-318 1382.5,-312 1382.5,-312 1382.5,-300 1382.5,-300 1382.5,-294 1388.5,-288 1394.5,-288 1394.5,-288 1459.5,-288 1459.5,-288 1465.5,-288 1471.5,-294 1471.5,-300 1471.5,-300 1471.5,-312 1471.5,-312 1471.5,-318 1465.5,-324 1459.5,-324"/>
<text text-anchor="middle" x="1427" y="-309" font-family="sans" font-size="10.00">gzip_compress</text>
<text text-anchor="middle" x="1427" y="-298" font-family="sans" font-size="10.00">direction: 1</text>
</g>
<!-- 34&#45;&gt;33 -->
<g id="edge49" class="edge">
<title>34&#45;&gt;33</title>
<path fill="none" stroke="grey" stroke-width="2" d="M1449.25,-287.7C1460.58,-278.88 1474.53,-268.03 1486.82,-258.47"/>
<polygon fill="grey" stroke="grey" stroke-width="2" points="1489.26,-261.01 1495.01,-252.1 1484.97,-255.48 1489.26,-261.01"/>
</g>
<!-- 35 -->
<g id="node36" class="node">
<title>35</title>
<path fill="none" stroke="#ced856" stroke-width="2" stroke-dasharray="5,2" d="M1522,-396C1522,-396 1432,-396 1432,-396 1426,-396 1420,-390 1420,-384 1420,-384 1420,-372 1420,-372 1420,-366 1426,-360 1432,-360 1432,-360 1522,-360 1522,-360 1528,-360 1534,-366 1534,-372 1534,-372 1534,-384 1534,-384 1534,-390 1528,-396 1522,-396"/>
<text text-anchor="middle" x="1477" y="-381" font-family="sans" font-size="10.00">fastq_dump</text>
<text text-anchor="middle" x="1477" y="-370" font-family="sans" font-size="10.00">sample: SRR799774</text>
</g>
<!-- 35&#45;&gt;34 -->
<g id="edge51" class="edge">
<title>35&#45;&gt;34</title>
<path fill="none" stroke="grey" stroke-width="2" d="M1464.64,-359.7C1458.77,-351.47 1451.63,-341.48 1445.16,-332.42"/>
<polygon fill="grey" stroke="grey" stroke-width="2" points="1447.88,-330.21 1439.22,-324.1 1442.18,-334.28 1447.88,-330.21"/>
</g>
<!-- 36 -->
<g id="node37" class="node">
<title>36</title>
<path fill="none" stroke="#d88556" stroke-width="2" stroke-dasharray="5,2" d="M1566.5,-324C1566.5,-324 1501.5,-324 1501.5,-324 1495.5,-324 1489.5,-318 1489.5,-312 1489.5,-312 1489.5,-300 1489.5,-300 1489.5,-294 1495.5,-288 1501.5,-288 1501.5,-288 1566.5,-288 1566.5,-288 1572.5,-288 1578.5,-294 1578.5,-300 1578.5,-300 1578.5,-312 1578.5,-312 1578.5,-318 1572.5,-324 1566.5,-324"/>
<text text-anchor="middle" x="1534" y="-309" font-family="sans" font-size="10.00">gzip_compress</text>
<text text-anchor="middle" x="1534" y="-298" font-family="sans" font-size="10.00">direction: 2</text>
</g>
<!-- 35&#45;&gt;36 -->
<g id="edge52" class="edge">
<title>35&#45;&gt;36</title>
<path fill="none" stroke="grey" stroke-width="2" d="M1491.09,-359.7C1497.92,-351.3 1506.26,-341.07 1513.76,-331.86"/>
<polygon fill="grey" stroke="grey" stroke-width="2" points="1516.47,-334.07 1520.07,-324.1 1511.04,-329.65 1516.47,-334.07"/>
</g>
<!-- 36&#45;&gt;33 -->
<g id="edge50" class="edge">
<title>36&#45;&gt;33</title>
<path fill="none" stroke="grey" stroke-width="2" d="M1529.8,-287.7C1527.9,-279.9 1525.62,-270.51 1523.52,-261.83"/>
<polygon fill="grey" stroke="grey" stroke-width="2" points="1526.92,-261 1521.15,-252.1 1520.11,-262.65 1526.92,-261"/>
</g>
<!-- 37 -->
<g id="node38" class="node">
<title>37</title>
<path fill="none" stroke="#56d86b" stroke-width="2" stroke-dasharray="5,2" d="M1816,-108C1816,-108 1716,-108 1716,-108 1710,-108 1704,-102 1704,-96 1704,-96 1704,-84 1704,-84 1704,-78 1710,-72 1716,-72 1716,-72 1816,-72 1816,-72 1822,-72 1828,-78 1828,-84 1828,-84 1828,-96 1828,-96 1828,-102 1822,-108 1816,-108"/>
<text text-anchor="middle" x="1766" y="-93" font-family="sans" font-size="10.00">pre_trinity_formatting</text>
<text text-anchor="middle" x="1766" y="-82" font-family="sans" font-size="10.00">replicate: 1</text>
</g>
<!-- 37&#45;&gt;0 -->
<g id="edge7" class="edge">
<title>37&#45;&gt;0</title>
<path fill="none" stroke="grey" stroke-width="2" d="M1703.76,-73.57C1700.81,-73 1697.88,-72.48 1695,-72 1496.45,-39.14 1255.23,-25.05 1164.18,-20.64"/>
<polygon fill="grey" stroke="grey" stroke-width="2" points="1164.23,-17.14 1154.08,-20.16 1163.9,-24.13 1164.23,-17.14"/>
</g>
<!-- 38 -->
<g id="node39" class="node">
<title>38</title>
<path fill="none" stroke="#70d856" stroke-width="2" stroke-dasharray="5,2" d="M1853,-180C1853,-180 1821,-180 1821,-180 1815,-180 1809,-174 1809,-168 1809,-168 1809,-156 1809,-156 1809,-150 1815,-144 1821,-144 1821,-144 1853,-144 1853,-144 1859,-144 1865,-150 1865,-156 1865,-156 1865,-168 1865,-168 1865,-174 1859,-180 1853,-180"/>
<text text-anchor="middle" x="1837" y="-159.5" font-family="sans" font-size="10.00">kraken2</text>
</g>
<!-- 38&#45;&gt;37 -->
<g id="edge53" class="edge">
<title>38&#45;&gt;37</title>
<path fill="none" stroke="grey" stroke-width="2" d="M1819.45,-143.7C1810.77,-135.14 1800.14,-124.66 1790.65,-115.3"/>
<polygon fill="grey" stroke="grey" stroke-width="2" points="1792.93,-112.63 1783.35,-108.1 1788.01,-117.62 1792.93,-112.63"/>
</g>
<!-- 55 -->
<g id="node56" class="node">
<title>55</title>
<path fill="none" stroke="#56d86b" stroke-width="2" stroke-dasharray="5,2" d="M1958,-108C1958,-108 1858,-108 1858,-108 1852,-108 1846,-102 1846,-96 1846,-96 1846,-84 1846,-84 1846,-78 1852,-72 1858,-72 1858,-72 1958,-72 1958,-72 1964,-72 1970,-78 1970,-84 1970,-84 1970,-96 1970,-96 1970,-102 1964,-108 1958,-108"/>
<text text-anchor="middle" x="1908" y="-93" font-family="sans" font-size="10.00">pre_trinity_formatting</text>
<text text-anchor="middle" x="1908" y="-82" font-family="sans" font-size="10.00">replicate: 2</text>
</g>
<!-- 38&#45;&gt;55 -->
<g id="edge71" class="edge">
<title>38&#45;&gt;55</title>
<path fill="none" stroke="grey" stroke-width="2" d="M1854.55,-143.7C1863.23,-135.14 1873.86,-124.66 1883.35,-115.3"/>
<polygon fill="grey" stroke="grey" stroke-width="2" points="1885.99,-117.62 1890.65,-108.1 1881.07,-112.63 1885.99,-117.62"/>
</g>
<!-- 39 -->
<g id="node40" class="node">
<title>39</title>
<path fill="none" stroke="#56b1d8" stroke-width="2" stroke-dasharray="5,2" d="M1865,-252C1865,-252 1809,-252 1809,-252 1803,-252 1797,-246 1797,-240 1797,-240 1797,-228 1797,-228 1797,-222 1803,-216 1809,-216 1809,-216 1865,-216 1865,-216 1871,-216 1877,-222 1877,-228 1877,-228 1877,-240 1877,-240 1877,-246 1871,-252 1865,-252"/>
<text text-anchor="middle" x="1837" y="-231.5" font-family="sans" font-size="10.00">trimmomatic</text>
</g>
<!-- 39&#45;&gt;38 -->
<g id="edge54" class="edge">
<title>39&#45;&gt;38</title>
<path fill="none" stroke="grey" stroke-width="2" d="M1837,-215.7C1837,-207.98 1837,-198.71 1837,-190.11"/>
<polygon fill="grey" stroke="grey" stroke-width="2" points="1840.5,-190.1 1837,-180.1 1833.5,-190.1 1840.5,-190.1"/>
</g>
<!-- 40 -->
<g id="node41" class="node">
<title>40</title>
<path fill="none" stroke="#d88556" stroke-width="2" stroke-dasharray="5,2" d="M1815.5,-324C1815.5,-324 1750.5,-324 1750.5,-324 1744.5,-324 1738.5,-318 1738.5,-312 1738.5,-312 1738.5,-300 1738.5,-300 1738.5,-294 1744.5,-288 1750.5,-288 1750.5,-288 1815.5,-288 1815.5,-288 1821.5,-288 1827.5,-294 1827.5,-300 1827.5,-300 1827.5,-312 1827.5,-312 1827.5,-318 1821.5,-324 1815.5,-324"/>
<text text-anchor="middle" x="1783" y="-309" font-family="sans" font-size="10.00">gzip_compress</text>
<text text-anchor="middle" x="1783" y="-298" font-family="sans" font-size="10.00">direction: 1</text>
</g>
<!-- 40&#45;&gt;39 -->
<g id="edge55" class="edge">
<title>40&#45;&gt;39</title>
<path fill="none" stroke="grey" stroke-width="2" d="M1796.35,-287.7C1802.76,-279.39 1810.56,-269.28 1817.61,-260.14"/>
<polygon fill="grey" stroke="grey" stroke-width="2" points="1820.47,-262.16 1823.81,-252.1 1814.93,-257.88 1820.47,-262.16"/>
</g>
<!-- 41 -->
<g id="node42" class="node">
<title>41</title>
<path fill="none" stroke="#ced856" stroke-width="2" stroke-dasharray="5,2" d="M1881,-396C1881,-396 1791,-396 1791,-396 1785,-396 1779,-390 1779,-384 1779,-384 1779,-372 1779,-372 1779,-366 1785,-360 1791,-360 1791,-360 1881,-360 1881,-360 1887,-360 1893,-366 1893,-372 1893,-372 1893,-384 1893,-384 1893,-390 1887,-396 1881,-396"/>
<text text-anchor="middle" x="1836" y="-381" font-family="sans" font-size="10.00">fastq_dump</text>
<text text-anchor="middle" x="1836" y="-370" font-family="sans" font-size="10.00">sample: SRR799775</text>
</g>
<!-- 41&#45;&gt;40 -->
<g id="edge57" class="edge">
<title>41&#45;&gt;40</title>
<path fill="none" stroke="grey" stroke-width="2" d="M1822.9,-359.7C1816.61,-351.39 1808.95,-341.28 1802.04,-332.14"/>
<polygon fill="grey" stroke="grey" stroke-width="2" points="1804.78,-329.96 1795.95,-324.1 1799.2,-334.19 1804.78,-329.96"/>
</g>
<!-- 42 -->
<g id="node43" class="node">
<title>42</title>
<path fill="none" stroke="#d88556" stroke-width="2" stroke-dasharray="5,2" d="M1922.5,-324C1922.5,-324 1857.5,-324 1857.5,-324 1851.5,-324 1845.5,-318 1845.5,-312 1845.5,-312 1845.5,-300 1845.5,-300 1845.5,-294 1851.5,-288 1857.5,-288 1857.5,-288 1922.5,-288 1922.5,-288 1928.5,-288 1934.5,-294 1934.5,-300 1934.5,-300 1934.5,-312 1934.5,-312 1934.5,-318 1928.5,-324 1922.5,-324"/>
<text text-anchor="middle" x="1890" y="-309" font-family="sans" font-size="10.00">gzip_compress</text>
<text text-anchor="middle" x="1890" y="-298" font-family="sans" font-size="10.00">direction: 2</text>
</g>
<!-- 41&#45;&gt;42 -->
<g id="edge58" class="edge">
<title>41&#45;&gt;42</title>
<path fill="none" stroke="grey" stroke-width="2" d="M1849.35,-359.7C1855.76,-351.39 1863.56,-341.28 1870.61,-332.14"/>
<polygon fill="grey" stroke="grey" stroke-width="2" points="1873.47,-334.16 1876.81,-324.1 1867.93,-329.88 1873.47,-334.16"/>
</g>
<!-- 42&#45;&gt;39 -->
<g id="edge56" class="edge">
<title>42&#45;&gt;39</title>
<path fill="none" stroke="grey" stroke-width="2" d="M1876.9,-287.7C1870.61,-279.39 1862.95,-269.28 1856.04,-260.14"/>
<polygon fill="grey" stroke="grey" stroke-width="2" points="1858.78,-257.96 1849.95,-252.1 1853.2,-262.19 1858.78,-257.96"/>
</g>
<!-- 43 -->
<g id="node44" class="node">
<title>43</title>
<path fill="none" stroke="#56d86b" stroke-width="2" stroke-dasharray="5,2" d="M2100,-108C2100,-108 2000,-108 2000,-108 1994,-108 1988,-102 1988,-96 1988,-96 1988,-84 1988,-84 1988,-78 1994,-72 2000,-72 2000,-72 2100,-72 2100,-72 2106,-72 2112,-78 2112,-84 2112,-84 2112,-96 2112,-96 2112,-102 2106,-108 2100,-108"/>
<text text-anchor="middle" x="2050" y="-93" font-family="sans" font-size="10.00">pre_trinity_formatting</text>
<text text-anchor="middle" x="2050" y="-82" font-family="sans" font-size="10.00">replicate: 1</text>
</g>
<!-- 43&#45;&gt;0 -->
<g id="edge8" class="edge">
<title>43&#45;&gt;0</title>
<path fill="none" stroke="grey" stroke-width="2" d="M1987.78,-73.46C1984.82,-72.92 1981.88,-72.43 1979,-72 1666.35,-25.2 1283.18,-19.6 1164.09,-19.03"/>
<polygon fill="grey" stroke="grey" stroke-width="2" points="1164.05,-15.53 1154.04,-18.99 1164.02,-22.53 1164.05,-15.53"/>
</g>
<!-- 44 -->
<g id="node45" class="node">
<title>44</title>
<path fill="none" stroke="#70d856" stroke-width="2" stroke-dasharray="5,2" d="M2137,-180C2137,-180 2105,-180 2105,-180 2099,-180 2093,-174 2093,-168 2093,-168 2093,-156 2093,-156 2093,-150 2099,-144 2105,-144 2105,-144 2137,-144 2137,-144 2143,-144 2149,-150 2149,-156 2149,-156 2149,-168 2149,-168 2149,-174 2143,-180 2137,-180"/>
<text text-anchor="middle" x="2121" y="-159.5" font-family="sans" font-size="10.00">kraken2</text>
</g>
<!-- 44&#45;&gt;43 -->
<g id="edge59" class="edge">
<title>44&#45;&gt;43</title>
<path fill="none" stroke="grey" stroke-width="2" d="M2103.45,-143.7C2094.77,-135.14 2084.14,-124.66 2074.65,-115.3"/>
<polygon fill="grey" stroke="grey" stroke-width="2" points="2076.93,-112.63 2067.35,-108.1 2072.01,-117.62 2076.93,-112.63"/>
</g>
<!-- 56 -->
<g id="node57" class="node">
<title>56</title>
<path fill="none" stroke="#56d86b" stroke-width="2" stroke-dasharray="5,2" d="M2242,-108C2242,-108 2142,-108 2142,-108 2136,-108 2130,-102 2130,-96 2130,-96 2130,-84 2130,-84 2130,-78 2136,-72 2142,-72 2142,-72 2242,-72 2242,-72 2248,-72 2254,-78 2254,-84 2254,-84 2254,-96 2254,-96 2254,-102 2248,-108 2242,-108"/>
<text text-anchor="middle" x="2192" y="-93" font-family="sans" font-size="10.00">pre_trinity_formatting</text>
<text text-anchor="middle" x="2192" y="-82" font-family="sans" font-size="10.00">replicate: 2</text>
</g>
<!-- 44&#45;&gt;56 -->
<g id="edge72" class="edge">
<title>44&#45;&gt;56</title>
<path fill="none" stroke="grey" stroke-width="2" d="M2138.55,-143.7C2147.23,-135.14 2157.86,-124.66 2167.35,-115.3"/>
<polygon fill="grey" stroke="grey" stroke-width="2" points="2169.99,-117.62 2174.65,-108.1 2165.07,-112.63 2169.99,-117.62"/>
</g>
<!-- 45 -->
<g id="node46" class="node">
<title>45</title>
<path fill="none" stroke="#56b1d8" stroke-width="2" stroke-dasharray="5,2" d="M2149,-252C2149,-252 2093,-252 2093,-252 2087,-252 2081,-246 2081,-240 2081,-240 2081,-228 2081,-228 2081,-222 2087,-216 2093,-216 2093,-216 2149,-216 2149,-216 2155,-216 2161,-222 2161,-228 2161,-228 2161,-240 2161,-240 2161,-246 2155,-252 2149,-252"/>
<text text-anchor="middle" x="2121" y="-231.5" font-family="sans" font-size="10.00">trimmomatic</text>
</g>
<!-- 45&#45;&gt;44 -->
<g id="edge60" class="edge">
<title>45&#45;&gt;44</title>
<path fill="none" stroke="grey" stroke-width="2" d="M2121,-215.7C2121,-207.98 2121,-198.71 2121,-190.11"/>
<polygon fill="grey" stroke="grey" stroke-width="2" points="2124.5,-190.1 2121,-180.1 2117.5,-190.1 2124.5,-190.1"/>
</g>
<!-- 46 -->
<g id="node47" class="node">
<title>46</title>
<path fill="none" stroke="#d88556" stroke-width="2" stroke-dasharray="5,2" d="M2100.5,-324C2100.5,-324 2035.5,-324 2035.5,-324 2029.5,-324 2023.5,-318 2023.5,-312 2023.5,-312 2023.5,-300 2023.5,-300 2023.5,-294 2029.5,-288 2035.5,-288 2035.5,-288 2100.5,-288 2100.5,-288 2106.5,-288 2112.5,-294 2112.5,-300 2112.5,-300 2112.5,-312 2112.5,-312 2112.5,-318 2106.5,-324 2100.5,-324"/>
<text text-anchor="middle" x="2068" y="-309" font-family="sans" font-size="10.00">gzip_compress</text>
<text text-anchor="middle" x="2068" y="-298" font-family="sans" font-size="10.00">direction: 1</text>
</g>
<!-- 46&#45;&gt;45 -->
<g id="edge61" class="edge">
<title>46&#45;&gt;45</title>
<path fill="none" stroke="grey" stroke-width="2" d="M2081.1,-287.7C2087.39,-279.39 2095.05,-269.28 2101.96,-260.14"/>
<polygon fill="grey" stroke="grey" stroke-width="2" points="2104.8,-262.19 2108.05,-252.1 2099.22,-257.96 2104.8,-262.19"/>
</g>
<!-- 47 -->
<g id="node48" class="node">
<title>47</title>
<path fill="none" stroke="#ced856" stroke-width="2" stroke-dasharray="5,2" d="M2166,-396C2166,-396 2076,-396 2076,-396 2070,-396 2064,-390 2064,-384 2064,-384 2064,-372 2064,-372 2064,-366 2070,-360 2076,-360 2076,-360 2166,-360 2166,-360 2172,-360 2178,-366 2178,-372 2178,-372 2178,-384 2178,-384 2178,-390 2172,-396 2166,-396"/>
<text text-anchor="middle" x="2121" y="-381" font-family="sans" font-size="10.00">fastq_dump</text>
<text text-anchor="middle" x="2121" y="-370" font-family="sans" font-size="10.00">sample: SRR799776</text>
</g>
<!-- 47&#45;&gt;46 -->
<g id="edge63" class="edge">
<title>47&#45;&gt;46</title>
<path fill="none" stroke="grey" stroke-width="2" d="M2107.9,-359.7C2101.61,-351.39 2093.95,-341.28 2087.04,-332.14"/>
<polygon fill="grey" stroke="grey" stroke-width="2" points="2089.78,-329.96 2080.95,-324.1 2084.2,-334.19 2089.78,-329.96"/>
</g>
<!-- 48 -->
<g id="node49" class="node">
<title>48</title>
<path fill="none" stroke="#d88556" stroke-width="2" stroke-dasharray="5,2" d="M2207.5,-324C2207.5,-324 2142.5,-324 2142.5,-324 2136.5,-324 2130.5,-318 2130.5,-312 2130.5,-312 2130.5,-300 2130.5,-300 2130.5,-294 2136.5,-288 2142.5,-288 2142.5,-288 2207.5,-288 2207.5,-288 2213.5,-288 2219.5,-294 2219.5,-300 2219.5,-300 2219.5,-312 2219.5,-312 2219.5,-318 2213.5,-324 2207.5,-324"/>
<text text-anchor="middle" x="2175" y="-309" font-family="sans" font-size="10.00">gzip_compress</text>
<text text-anchor="middle" x="2175" y="-298" font-family="sans" font-size="10.00">direction: 2</text>
</g>
<!-- 47&#45;&gt;48 -->
<g id="edge64" class="edge">
<title>47&#45;&gt;48</title>
<path fill="none" stroke="grey" stroke-width="2" d="M2134.35,-359.7C2140.76,-351.39 2148.56,-341.28 2155.61,-332.14"/>
<polygon fill="grey" stroke="grey" stroke-width="2" points="2158.47,-334.16 2161.81,-324.1 2152.93,-329.88 2158.47,-334.16"/>
</g>
<!-- 48&#45;&gt;45 -->
<g id="edge62" class="edge">
<title>48&#45;&gt;45</title>
<path fill="none" stroke="grey" stroke-width="2" d="M2161.65,-287.7C2155.24,-279.39 2147.44,-269.28 2140.39,-260.14"/>
<polygon fill="grey" stroke="grey" stroke-width="2" points="2143.07,-257.88 2134.19,-252.1 2137.53,-262.16 2143.07,-257.88"/>
</g>
<!-- 49&#45;&gt;0 -->
<g id="edge9" class="edge">
<title>49&#45;&gt;0</title>
<path fill="none" stroke="grey" stroke-width="2" d="M266.22,-73.46C269.18,-72.92 272.12,-72.43 275,-72 587.65,-25.2 970.82,-19.6 1089.91,-19.03"/>
<polygon fill="grey" stroke="grey" stroke-width="2" points="1089.98,-22.53 1099.96,-18.99 1089.95,-15.53 1089.98,-22.53"/>
</g>
<!-- 50&#45;&gt;0 -->
<g id="edge10" class="edge">
<title>50&#45;&gt;0</title>
<path fill="none" stroke="grey" stroke-width="2" d="M550.24,-73.57C553.19,-73 556.12,-72.48 559,-72 757.55,-39.14 998.77,-25.05 1089.82,-20.64"/>
<polygon fill="grey" stroke="grey" stroke-width="2" points="1090.1,-24.13 1099.92,-20.16 1089.77,-17.14 1090.1,-24.13"/>
</g>
<!-- 51&#45;&gt;0 -->
<g id="edge11" class="edge">
<title>51&#45;&gt;0</title>
<path fill="none" stroke="grey" stroke-width="2" d="M834.3,-73.9C837.24,-73.24 840.15,-72.61 843,-72 931.26,-53.21 1035.73,-34.66 1090.03,-25.28"/>
<polygon fill="grey" stroke="grey" stroke-width="2" points="1090.63,-28.73 1099.89,-23.59 1089.44,-21.83 1090.63,-28.73"/>
</g>
<!-- 52&#45;&gt;0 -->
<g id="edge12" class="edge">
<title>52&#45;&gt;0</title>
<path fill="none" stroke="grey" stroke-width="2" d="M1073.55,-71.7C1082.23,-63.14 1092.86,-52.66 1102.35,-43.3"/>
<polygon fill="grey" stroke="grey" stroke-width="2" points="1104.99,-45.62 1109.65,-36.1 1100.07,-40.63 1104.99,-45.62"/>
</g>
<!-- 53&#45;&gt;0 -->
<g id="edge13" class="edge">
<title>53&#45;&gt;0</title>
<path fill="none" stroke="grey" stroke-width="2" d="M1288.17,-71.97C1249.72,-59.33 1198.24,-42.41 1163.92,-31.13"/>
<polygon fill="grey" stroke="grey" stroke-width="2" points="1164.87,-27.76 1154.28,-27.97 1162.69,-34.41 1164.87,-27.76"/>
</g>
<!-- 54&#45;&gt;0 -->
<g id="edge14" class="edge">
<title>54&#45;&gt;0</title>
<path fill="none" stroke="grey" stroke-width="2" d="M1561.74,-73.68C1558.79,-73.08 1555.87,-72.52 1553,-72 1410.41,-46.14 1238.67,-28.99 1164.32,-22.23"/>
<polygon fill="grey" stroke="grey" stroke-width="2" points="1164.35,-18.72 1154.07,-21.31 1163.72,-25.69 1164.35,-18.72"/>
</g>
<!-- 55&#45;&gt;0 -->
<g id="edge15" class="edge">
<title>55&#45;&gt;0</title>
<path fill="none" stroke="grey" stroke-width="2" d="M1845.77,-73.5C1842.82,-72.96 1839.88,-72.45 1837,-72 1581.96,-32.21 1270.56,-22.07 1164.46,-19.68"/>
<polygon fill="grey" stroke="grey" stroke-width="2" points="1164.34,-16.18 1154.26,-19.46 1164.19,-23.18 1164.34,-16.18"/>
</g>
<!-- 56&#45;&gt;0 -->
<g id="edge16" class="edge">
<title>56&#45;&gt;0</title>
<path fill="none" stroke="grey" stroke-width="2" d="M2129.79,-73.43C2126.82,-72.9 2123.88,-72.42 2121,-72 1750.88,-18.28 1296.17,-17.51 1164.4,-18.56"/>
<polygon fill="grey" stroke="grey" stroke-width="2" points="1164.03,-15.06 1154.06,-18.65 1164.09,-22.06 1164.03,-15.06"/>
</g>
</g>
</svg>
